<mxfile host="65bd71144e">
    <diagram id="FT-UmnTg2jbjPs7jJ36R" name="Page-1">
        <mxGraphModel dx="1185" dy="863" grid="1" gridSize="10" guides="1" tooltips="1" connect="1" arrows="1" fold="1" page="1" pageScale="1" pageWidth="827" pageHeight="1169" math="0" shadow="0">
            <root>
                <mxCell id="0"/>
                <mxCell id="1" parent="0"/>
                <mxCell id="36" value="VPC" style="points=[[0,0],[0.25,0],[0.5,0],[0.75,0],[1,0],[1,0.25],[1,0.5],[1,0.75],[1,1],[0.75,1],[0.5,1],[0.25,1],[0,1],[0,0.75],[0,0.5],[0,0.25]];outlineConnect=0;gradientColor=none;html=1;whiteSpace=wrap;fontSize=17;fontStyle=0;container=1;pointerEvents=0;collapsible=0;recursiveResize=0;shape=mxgraph.aws4.group;grIcon=mxgraph.aws4.group_vpc;strokeColor=#248814;fillColor=none;verticalAlign=top;align=left;spacingLeft=30;fontColor=#4D4D4D;dashed=0;strokeWidth=2;" vertex="1" parent="1">
                    <mxGeometry x="49" y="40" width="730" height="620" as="geometry"/>
                </mxCell>
                <mxCell id="37" value="ECS Cluster" style="points=[[0,0],[0.25,0],[0.5,0],[0.75,0],[1,0],[1,0.25],[1,0.5],[1,0.75],[1,1],[0.75,1],[0.5,1],[0.25,1],[0,1],[0,0.75],[0,0.5],[0,0.25]];outlineConnect=0;gradientColor=none;html=1;whiteSpace=wrap;fontSize=17;fontStyle=0;container=1;pointerEvents=0;collapsible=0;recursiveResize=0;shape=mxgraph.aws4.group;grIcon=mxgraph.aws4.group_elastic_beanstalk;strokeColor=#D86613;fillColor=none;verticalAlign=top;align=left;spacingLeft=30;fontColor=#D86613;dashed=0;strokeWidth=2;" vertex="1" parent="36">
                    <mxGeometry x="31" y="50" width="665" height="160" as="geometry"/>
                </mxCell>
                <mxCell id="38" value="Backend&lt;br&gt;Load Balancer" style="rounded=1;whiteSpace=wrap;html=1;fontSize=16;strokeWidth=2;" vertex="1" parent="37">
                    <mxGeometry x="499" y="65" width="130" height="60" as="geometry"/>
                </mxCell>
                <mxCell id="39" value="Backend&lt;br&gt;API" style="rounded=1;whiteSpace=wrap;html=1;fontSize=16;strokeWidth=2;" vertex="1" parent="37">
                    <mxGeometry x="264" y="65" width="130" height="60" as="geometry"/>
                </mxCell>
                <mxCell id="40" style="edgeStyle=orthogonalEdgeStyle;html=1;exitX=0;exitY=0.5;exitDx=0;exitDy=0;entryX=1;entryY=0.5;entryDx=0;entryDy=0;startArrow=classic;startFill=1;strokeWidth=2;" edge="1" parent="37" source="38" target="39">
                    <mxGeometry relative="1" as="geometry"/>
                </mxCell>
                <mxCell id="41" value="Timeseries&lt;br&gt;Database" style="shape=datastore;whiteSpace=wrap;html=1;fontSize=16;strokeWidth=2;" vertex="1" parent="37">
                    <mxGeometry x="59" y="50" width="100" height="90" as="geometry"/>
                </mxCell>
                <mxCell id="42" style="edgeStyle=orthogonalEdgeStyle;html=1;exitX=1;exitY=0.5;exitDx=0;exitDy=0;entryX=0;entryY=0.5;entryDx=0;entryDy=0;fontSize=16;startArrow=classic;startFill=1;strokeWidth=2;" edge="1" parent="37" source="41" target="39">
                    <mxGeometry relative="1" as="geometry"/>
                </mxCell>
                <mxCell id="43" style="edgeStyle=orthogonalEdgeStyle;html=1;entryX=0.5;entryY=1;entryDx=0;entryDy=0;fontSize=16;startArrow=none;startFill=0;strokeWidth=2;" edge="1" parent="36" source="44" target="38">
                    <mxGeometry relative="1" as="geometry"/>
                </mxCell>
                <mxCell id="44" value="Data Intake&lt;br style=&quot;font-size: 16px;&quot;&gt;Main Function" style="sketch=0;outlineConnect=0;fontColor=#232F3E;gradientColor=none;fillColor=#D45B07;strokeColor=none;dashed=0;verticalLabelPosition=bottom;verticalAlign=top;align=center;html=1;fontSize=16;fontStyle=0;aspect=fixed;pointerEvents=1;shape=mxgraph.aws4.lambda_function;spacing=2;spacingTop=0;perimeterSpacing=3;" vertex="1" parent="36">
                    <mxGeometry x="571" y="255" width="48" height="48" as="geometry"/>
                </mxCell>
                <mxCell id="45" style="edgeStyle=orthogonalEdgeStyle;html=1;entryX=0.5;entryY=1;entryDx=0;entryDy=0;entryPerimeter=0;fontSize=16;fontColor=#FF0000;startArrow=none;startFill=0;strokeWidth=2;" edge="1" parent="36" source="46" target="59">
                    <mxGeometry relative="1" as="geometry">
                        <Array as="points">
                            <mxPoint x="224" y="370"/>
                            <mxPoint x="364" y="370"/>
                        </Array>
                    </mxGeometry>
                </mxCell>
                <mxCell id="46" value="AWS S3&lt;br&gt;.txt Intake" style="sketch=0;outlineConnect=0;fontColor=#232F3E;gradientColor=none;fillColor=#D45B07;strokeColor=none;dashed=0;verticalLabelPosition=bottom;verticalAlign=top;align=center;html=1;fontSize=16;fontStyle=0;aspect=fixed;pointerEvents=1;shape=mxgraph.aws4.lambda_function;" vertex="1" parent="36">
                    <mxGeometry x="200" y="400" width="48" height="48" as="geometry"/>
                </mxCell>
                <mxCell id="47" style="edgeStyle=orthogonalEdgeStyle;html=1;entryX=0.5;entryY=1;entryDx=0;entryDy=0;entryPerimeter=0;fontSize=16;fontColor=#FF0000;startArrow=none;startFill=0;strokeWidth=2;" edge="1" parent="36" source="48" target="59">
                    <mxGeometry relative="1" as="geometry">
                        <Array as="points">
                            <mxPoint x="364" y="400"/>
                            <mxPoint x="364" y="400"/>
                        </Array>
                    </mxGeometry>
                </mxCell>
                <mxCell id="48" value="AWS S3&lt;br&gt;.csv Intake" style="sketch=0;outlineConnect=0;fontColor=#232F3E;gradientColor=none;fillColor=#D45B07;strokeColor=none;dashed=0;verticalLabelPosition=bottom;verticalAlign=top;align=center;html=1;fontSize=16;fontStyle=0;aspect=fixed;pointerEvents=1;shape=mxgraph.aws4.lambda_function;" vertex="1" parent="36">
                    <mxGeometry x="340" y="400" width="48" height="48" as="geometry"/>
                </mxCell>
                <mxCell id="49" style="edgeStyle=orthogonalEdgeStyle;html=1;entryX=0.5;entryY=1;entryDx=0;entryDy=0;entryPerimeter=0;fontSize=16;fontColor=#FF0000;startArrow=none;startFill=0;strokeWidth=2;" edge="1" parent="36" source="50" target="59">
                    <mxGeometry relative="1" as="geometry">
                        <Array as="points">
                            <mxPoint x="84" y="370"/>
                            <mxPoint x="364" y="370"/>
                        </Array>
                    </mxGeometry>
                </mxCell>
                <mxCell id="50" value="AWS S3&lt;br&gt;.xlsx Intake" style="sketch=0;outlineConnect=0;fontColor=#232F3E;gradientColor=none;fillColor=#D45B07;strokeColor=none;dashed=0;verticalLabelPosition=bottom;verticalAlign=top;align=center;html=1;fontSize=16;fontStyle=0;aspect=fixed;pointerEvents=1;shape=mxgraph.aws4.lambda_function;" vertex="1" parent="36">
                    <mxGeometry x="60" y="400" width="48" height="48" as="geometry"/>
                </mxCell>
                <mxCell id="51" style="edgeStyle=orthogonalEdgeStyle;html=1;entryX=0.5;entryY=1;entryDx=0;entryDy=0;entryPerimeter=0;fontSize=16;fontColor=#FF0000;startArrow=none;startFill=0;strokeWidth=2;" edge="1" parent="36" source="52" target="59">
                    <mxGeometry relative="1" as="geometry">
                        <Array as="points">
                            <mxPoint x="514" y="370"/>
                            <mxPoint x="364" y="370"/>
                        </Array>
                    </mxGeometry>
                </mxCell>
                <mxCell id="52" value="Email&lt;br&gt;Intake" style="sketch=0;outlineConnect=0;fontColor=#232F3E;gradientColor=none;fillColor=#D45B07;strokeColor=none;dashed=0;verticalLabelPosition=bottom;verticalAlign=top;align=center;html=1;fontSize=16;fontStyle=0;aspect=fixed;pointerEvents=1;shape=mxgraph.aws4.lambda_function;" vertex="1" parent="36">
                    <mxGeometry x="490" y="400" width="48" height="48" as="geometry"/>
                </mxCell>
                <mxCell id="53" style="edgeStyle=orthogonalEdgeStyle;html=1;entryX=0.5;entryY=1;entryDx=0;entryDy=0;entryPerimeter=0;fontSize=16;fontColor=#FF0000;startArrow=none;startFill=0;strokeWidth=2;" edge="1" parent="36" source="54" target="59">
                    <mxGeometry relative="1" as="geometry">
                        <Array as="points">
                            <mxPoint x="654" y="370"/>
                            <mxPoint x="364" y="370"/>
                        </Array>
                    </mxGeometry>
                </mxCell>
                <mxCell id="54" value="Client API&lt;br&gt;Intake" style="sketch=0;outlineConnect=0;fontColor=#232F3E;gradientColor=none;fillColor=#D45B07;strokeColor=none;dashed=0;verticalLabelPosition=bottom;verticalAlign=top;align=center;html=1;fontSize=16;fontStyle=0;aspect=fixed;pointerEvents=1;shape=mxgraph.aws4.lambda_function;" vertex="1" parent="36">
                    <mxGeometry x="630" y="400" width="48" height="48" as="geometry"/>
                </mxCell>
                <mxCell id="55" style="edgeStyle=orthogonalEdgeStyle;html=1;exitX=0;exitY=0.5;exitDx=0;exitDy=0;exitPerimeter=0;fontSize=16;fontColor=#FF0000;startArrow=none;startFill=0;strokeWidth=2;dashed=1;" edge="1" parent="36" source="57" target="52">
                    <mxGeometry relative="1" as="geometry">
                        <Array as="points">
                            <mxPoint x="585" y="560"/>
                            <mxPoint x="585" y="424"/>
                        </Array>
                    </mxGeometry>
                </mxCell>
                <mxCell id="56" style="edgeStyle=orthogonalEdgeStyle;html=1;exitX=0;exitY=0.5;exitDx=0;exitDy=0;exitPerimeter=0;fontSize=16;fontColor=#FF0000;startArrow=none;startFill=0;strokeWidth=2;dashed=1;" edge="1" parent="36" source="57" target="54">
                    <mxGeometry relative="1" as="geometry">
                        <Array as="points">
                            <mxPoint x="585" y="560"/>
                            <mxPoint x="585" y="424"/>
                        </Array>
                    </mxGeometry>
                </mxCell>
                <mxCell id="57" value="Periodic&lt;br style=&quot;font-size: 16px;&quot;&gt;Trigger&lt;br style=&quot;font-size: 16px;&quot;&gt;" style="sketch=0;points=[[0,0,0],[0.25,0,0],[0.5,0,0],[0.75,0,0],[1,0,0],[0,1,0],[0.25,1,0],[0.5,1,0],[0.75,1,0],[1,1,0],[0,0.25,0],[0,0.5,0],[0,0.75,0],[1,0.25,0],[1,0.5,0],[1,0.75,0]];outlineConnect=0;fontColor=#232F3E;gradientColor=#FF4F8B;gradientDirection=north;fillColor=#BC1356;strokeColor=#ffffff;dashed=0;verticalLabelPosition=middle;verticalAlign=middle;align=left;html=1;fontSize=16;fontStyle=0;aspect=fixed;shape=mxgraph.aws4.resourceIcon;resIcon=mxgraph.aws4.step_functions;labelPosition=right;" vertex="1" parent="36">
                    <mxGeometry x="600" y="535" width="50" height="50" as="geometry"/>
                </mxCell>
                <mxCell id="58" style="edgeStyle=orthogonalEdgeStyle;html=1;exitX=1;exitY=0.5;exitDx=0;exitDy=0;exitPerimeter=0;fontSize=16;fontColor=#FF0000;startArrow=none;startFill=0;strokeWidth=2;" edge="1" parent="36" source="59" target="44">
                    <mxGeometry relative="1" as="geometry">
                        <Array as="points">
                            <mxPoint x="520" y="279"/>
                            <mxPoint x="520" y="279"/>
                        </Array>
                    </mxGeometry>
                </mxCell>
                <mxCell id="59" value="Data Intake&lt;br style=&quot;font-size: 16px;&quot;&gt;Queue" style="sketch=0;points=[[0,0,0],[0.25,0,0],[0.5,0,0],[0.75,0,0],[1,0,0],[0,1,0],[0.25,1,0],[0.5,1,0],[0.75,1,0],[1,1,0],[0,0.25,0],[0,0.5,0],[0,0.75,0],[1,0.25,0],[1,0.5,0],[1,0.75,0]];outlineConnect=0;fontColor=#232F3E;gradientColor=#FF4F8B;gradientDirection=north;fillColor=#BC1356;strokeColor=#ffffff;dashed=0;verticalLabelPosition=middle;verticalAlign=middle;align=right;html=1;fontSize=16;fontStyle=0;aspect=fixed;shape=mxgraph.aws4.resourceIcon;resIcon=mxgraph.aws4.sqs;labelPosition=left;" vertex="1" parent="36">
                    <mxGeometry x="325" y="240" width="78" height="78" as="geometry"/>
                </mxCell>
                <mxCell id="62" style="edgeStyle=orthogonalEdgeStyle;html=1;exitX=0.25;exitY=0;exitDx=0;exitDy=0;fontSize=16;startArrow=none;startFill=0;strokeWidth=2;" edge="1" parent="36" source="61" target="50">
                    <mxGeometry relative="1" as="geometry">
                        <Array as="points">
                            <mxPoint x="137" y="424"/>
                        </Array>
                    </mxGeometry>
                </mxCell>
                <mxCell id="63" style="edgeStyle=orthogonalEdgeStyle;html=1;fontSize=16;startArrow=none;startFill=0;strokeWidth=2;" edge="1" parent="36" source="61" target="46">
                    <mxGeometry relative="1" as="geometry">
                        <Array as="points">
                            <mxPoint x="281" y="424"/>
                        </Array>
                    </mxGeometry>
                </mxCell>
                <mxCell id="64" style="edgeStyle=orthogonalEdgeStyle;html=1;exitX=1;exitY=0.5;exitDx=0;exitDy=0;fontSize=16;startArrow=none;startFill=0;strokeWidth=2;" edge="1" parent="36" source="61" target="48">
                    <mxGeometry relative="1" as="geometry">
                        <Array as="points">
                            <mxPoint x="421" y="560"/>
                            <mxPoint x="421" y="424"/>
                        </Array>
                    </mxGeometry>
                </mxCell>
                <mxCell id="61" value="Legacy&lt;br&gt;SFTP&lt;br&gt;Server" style="rounded=1;whiteSpace=wrap;html=1;fontSize=16;strokeWidth=2;" vertex="1" parent="36">
                    <mxGeometry x="49" y="520" width="350" height="80" as="geometry"/>
                </mxCell>
            </root>
        </mxGraphModel>
    </diagram>
</mxfile>